<?xml version="1.0" encoding="UTF-8" standalone="no"?>
<svg id="svg3034" xmlns:rdf="http://www.w3.org/1999/02/22-rdf-syntax-ns#" xmlns="http://www.w3.org/2000/svg" height="71.25pt" width="78.75pt" version="1.1" xmlns:cc="http://creativecommons.org/ns#" xmlns:dc="http://purl.org/dc/elements/1.1/" viewBox="0 0 105 95">
 <metadata id="metadata3046">
  <rdf:RDF>
   <cc:Work rdf:about="">
    <dc:format>image/svg+xml</dc:format>
    <dc:type rdf:resource="http://purl.org/dc/dcmitype/StillImage"/>
   </cc:Work>
  </rdf:RDF>
 </metadata>
 <path id="path4112" fill="#f9f9f9" d="m6.01 8.466c30.56 0.02 61.12 0.01 91.69 0.01-0.01 3.25 0 6.51 0 9.77-2.97-0.01-5.93 0-8.9 0-0.03 12 0.01 24.01-0.01 36.02 0 4.28-0.96 8.72-3.56 12.2-2.64 3.46-7.12 4.87-11.32 4.97-5.89 0.21-11.79-0.03-17.68 0.12 0.42 2.09 0.7 4.67 2.84 5.76 3.57 1.84 7.87 1.25 11.44-0.28-0.02 2.88-0.01 5.77 0 8.66-6.25 2.3-13.59 1.59-19.01-2.39-5.39 3.94-12.68 4.7-18.89 2.4 0.01-2.87 0.02-5.75-0.02-8.62 3.53 1.48 7.77 2.05 11.29 0.25 2.18-1.06 2.47-3.68 2.89-5.78-7.11-0.37-14.35 0.65-21.37-0.8-6.85-1.59-10.14-8.95-10.16-15.44-0.09-12.35 0.01-24.71-0.04-37.07-3.07 0-6.13-0.01-9.2 0 0.01-3.26 0.01-6.52 0.01-9.78z"/>
 <path id="path3036" fill="#131313" d="m6.01 7.21c30.56 0.02 61.12 0.01 91.69 0.01-0.01 3.25 0 6.51 0 9.77-2.97-0.01-5.93 0-8.9 0-0.03 12 0.01 24.01-0.01 36.02 0 4.28-0.96 8.72-3.56 12.2-2.64 3.46-7.12 4.87-11.32 4.97-5.89 0.21-11.79-0.03-17.68 0.12 0.42 2.09 0.7 4.67 2.84 5.76 3.57 1.84 7.87 1.25 11.44-0.28-0.02 2.88-0.01 5.77 0 8.66-6.25 2.3-13.59 1.59-19.01-2.39-5.39 3.94-12.68 4.7-18.89 2.4 0.01-2.87 0.02-5.75-0.02-8.62 3.53 1.48 7.77 2.05 11.29 0.25 2.18-1.06 2.47-3.68 2.89-5.78-7.11-0.37-14.35 0.65-21.37-0.8-6.85-1.59-10.14-8.95-10.16-15.44-0.09-12.35 0.01-24.71-0.04-37.07-3.07 0-6.13-0.01-9.2 0 0.01-3.26 0.01-6.52 0.01-9.78z"/>
 <path id="path3038" fill="#d6d5cf" d="m23.85 16.99h56.3c0 11.68-0.01 23.35 0.01 35.03-0.03 2.45-0.1 5.28-2.04 7.08-1.66 1.52-4.05 1.42-6.15 1.49-13.34-0.02-26.68-0.02-40.02-0.01-2.09-0.07-4.47 0.04-6.1-1.51-1.93-1.82-1.98-4.66-2.01-7.11 0.02-11.66 0.01-23.32 0.01-34.97z"/>
</svg>
